<svg xmlns="http://www.w3.org/2000/svg" width="1280" height="640" viewBox="0 0 1280 640" role="img" aria-label="AI 播客索引 GitHub social preview">
  <rect width="1280" height="640" fill="#f6f5f4"/>
  <rect x="64" y="64" width="1152" height="512" rx="28" fill="#fff" stroke="#171a18" stroke-opacity=".1"/>
  <g transform="translate(116 112)">
    <rect width="96" height="96" rx="22" fill="#fbfaf8" stroke="#171a18" stroke-opacity=".12"/>
    <path d="M28 61.5V36.8c0-5.4 5.8-8.7 10.5-5.9l20.4 12.3c4.3 2.6 4.3 8.8 0 11.4L38.5 67c-4.7 2.8-10.5-.6-10.5-5.5Z" fill="#171a18"/>
    <path d="M35.8 56.8V41.6c0-1.5 1.2-2.4 2.5-1.7l12.7 7.7c1.2.7 1.2 2.4 0 3.1l-12.7 7.7c-1.3.8-2.5-.1-2.5-1.6Z" fill="#fff"/>
    <path d="M66 28.8c0-1.8 1.5-3.3 3.3-3.3s3.3 1.5 3.3 3.3v38.4c0 1.8-1.5 3.3-3.3 3.3S66 69 66 67.2V28.8Zm-12.3 3.9c0-1.8 1.5-3.3 3.3-3.3s3.3 1.5 3.3 3.3v30.6c0 1.8-1.5 3.3-3.3 3.3s-3.3-1.5-3.3-3.3V32.7Zm-36 7.8c0-1.8 1.5-3.3 3.3-3.3s3.3 1.5 3.3 3.3v15c0 1.8-1.5 3.3-3.3 3.3s-3.3-1.5-3.3-3.3v-15Z" fill="#dd5b00"/>
    <circle cx="73.5" cy="22.5" r="6.3" fill="#0075de"/>
  </g>
  <text x="116" y="292" fill="#171a18" font-family="-apple-system, BlinkMacSystemFont, 'Segoe UI', sans-serif" font-size="72" font-weight="800">一起学习 Youtube AI 播客</text>
  <text x="116" y="362" fill="#615d59" font-family="-apple-system, BlinkMacSystemFont, 'Segoe UI', sans-serif" font-size="34" font-weight="500">整理值得长期跟踪的 AI 播客、中文简介、Transcript 状态和总结入口</text>
  <text x="116" y="430" fill="#171a18" font-family="-apple-system, BlinkMacSystemFont, 'Segoe UI', sans-serif" font-size="30" font-weight="700">youtube.qiaomu.ai</text>
  <g transform="translate(116 482)" fill="#0075de" font-family="-apple-system, BlinkMacSystemFont, 'Segoe UI', sans-serif" font-size="24" font-weight="700">
    <rect width="142" height="46" rx="10" fill="#0075de"/>
    <text x="24" y="31" fill="#fff">25 播客</text>
    <rect x="164" width="196" height="46" rx="10" fill="#f1f7ff" stroke="#0075de" stroke-opacity=".22"/>
    <text x="188" y="31">125 节目</text>
    <rect x="382" width="278" height="46" rx="10" fill="#fff8f4" stroke="#dd5b00" stroke-opacity=".24"/>
    <text x="406" y="31" fill="#dd5b00">99 深度总结</text>
  </g>
</svg>
